<?xml version="1.0" encoding="UTF-8" standalone="no"?>
<!-- Created with Inkscape (http://www.inkscape.org/) -->

<svg
   xmlns:dc="http://purl.org/dc/elements/1.1/"
   xmlns:cc="http://creativecommons.org/ns#"
   xmlns:rdf="http://www.w3.org/1999/02/22-rdf-syntax-ns#"
   xmlns:svg="http://www.w3.org/2000/svg"
   xmlns="http://www.w3.org/2000/svg"
   xmlns:sodipodi="http://sodipodi.sourceforge.net/DTD/sodipodi-0.dtd"
   xmlns:inkscape="http://www.inkscape.org/namespaces/inkscape"
   width="160"
   height="100"
   id="svg2"
   version="1.1"
   inkscape:version="0.48.3.1 r9886"
   sodipodi:docname="NifeLogo2.svg"
   inkscape:export-xdpi="180"
   inkscape:export-ydpi="180">
  <defs
     id="defs4" />
  <sodipodi:namedview
     id="base"
     pagecolor="#ffffff"
     bordercolor="#666666"
     borderopacity="1.0"
     inkscape:pageopacity="0.0"
     inkscape:pageshadow="2"
     inkscape:zoom="2"
     inkscape:cx="95.74729"
     inkscape:cy="-43.798883"
     inkscape:document-units="px"
     inkscape:current-layer="layer1"
     showgrid="true"
     inkscape:object-paths="false"
     inkscape:window-width="1055"
     inkscape:window-height="997"
     inkscape:window-x="35"
     inkscape:window-y="0"
     inkscape:window-maximized="0"
     fit-margin-top="5"
     fit-margin-left="5"
     fit-margin-right="5"
     fit-margin-bottom="5">
    <inkscape:grid
       type="xygrid"
       id="grid2985"
       empspacing="5"
       visible="true"
       enabled="true"
       snapvisiblegridlinesonly="true"
       originx="-10px"
       originy="-930px" />
  </sodipodi:namedview>
  <metadata
     id="metadata7">
    <rdf:RDF>
      <cc:Work
         rdf:about="">
        <dc:format>image/svg+xml</dc:format>
        <dc:type
           rdf:resource="http://purl.org/dc/dcmitype/StillImage" />
        <dc:title />
      </cc:Work>
    </rdf:RDF>
  </metadata>
  <g
     inkscape:label="Layer 1"
     inkscape:groupmode="layer"
     id="layer1"
     transform="translate(-10,-22.362183)">
    <path
       style="fill:#000000;fill-opacity:1;stroke:#000000;stroke-width:10;stroke-linecap:butt;stroke-linejoin:miter;stroke-miterlimit:4;stroke-opacity:1;stroke-dasharray:none"
       d="m 20,110 0,-80 20,0 20,40 0,-40 20,0 0,20 c 0,0 0,-20 20,-20 20,0 30,0 30,0 l 0,20 10,0 c 0,0 20,0 20,20 0,20 0,20 0,20 0,0 0,20 -20,20 -20,0 -20,0 -20,0 0,0 -20,0 -20,-20 0,-20 0,20 0,20 l -40,0 -20,-40 0,40 z"
       id="path3851"
       inkscape:connector-curvature="0"
       transform="translate(0,2.362183)" />
    <path
       style="fill:#93b8b8;fill-opacity:1;stroke:#000000;stroke-width:2;stroke-linecap:butt;stroke-linejoin:miter;stroke-miterlimit:4;stroke-opacity:1;stroke-dasharray:none"
       d="m 20,112.36218 0,-79.999997 20,0 20,40 0,-40 20,0 0,79.999997 -20,0 -20,-39.999997 0,39.999997 z"
       id="path3779"
       inkscape:connector-curvature="0"
       sodipodi:nodetypes="ccccccccccc" />
    <path
       style="fill:#93b8b8;fill-opacity:1;stroke:#000000;stroke-width:2;stroke-linecap:butt;stroke-linejoin:miter;stroke-opacity:1;stroke-miterlimit:4;stroke-dasharray:none"
       d="M 120.625,90 160,90 c 0,0 0,20 -20,20 -20,0 -20,0 -20,0 0,0 -20,0 -20,-20 0,-20 0,-20 0,-20 l 0,40 -20,0 0,-40 -20,0 0,-20 20,0 c 0,0 0,-20 20,-20 20,0 30,0 30,0 l 0,20 -30,0 40,0 c 0,0 20,0 20,20 0,20 0,0 0,20 -20,0 -20,0 -39.375,0 z"
       id="path3847"
       inkscape:connector-curvature="0"
       transform="translate(0,2.362183)"
       sodipodi:nodetypes="ccscscccccccsccccscc" />
    <path
       style="fill:none;stroke:#000000;stroke-width:2;stroke-linecap:butt;stroke-linejoin:miter;stroke-opacity:1;stroke-miterlimit:4;stroke-dasharray:none"
       d="m 120,70 20,0"
       id="path3849"
       inkscape:connector-curvature="0"
       transform="translate(0,2.362183)" />
  </g>
</svg>
